<svg xmlns="http://www.w3.org/2000/svg" viewBox="0 0 48 48" width="48" height="48">
  <defs>
    <linearGradient id="fav-brand" x1="6" y1="4" x2="42" y2="44" gradientUnits="userSpaceOnUse">
      <stop offset="0%" stop-color="#E8A0B4"/>
      <stop offset="50%" stop-color="#C4577A"/>
      <stop offset="100%" stop-color="#8B3A62"/>
    </linearGradient>
  </defs>
  <rect x="2" y="2" width="44" height="44" rx="13" fill="url(#fav-brand)"/>
  <path d="M10.5 30.5C10.5 30.5 24 12.5 37.5 30.5" fill="none" stroke="#FFF9F5" stroke-width="2.8" stroke-linecap="round"/>
  <path d="M13 30.5V35.5M35 30.5V35.5M11.5 35.5H36.5" fill="none" stroke="#FFF9F5" stroke-width="2.4" stroke-linecap="round" stroke-linejoin="round"/>
  <path fill="#FFF9F5" d="M24 27.2s-3.4-2.4-3.4-5c0-1.75 1.4-3.1 3.1-3.1.85 0 1.55.38 1.95 1 .4-.62 1.1-1 1.95-1 1.7 0 3.1 1.35 3.1 3.1 0 2.6-3.4 5-3.4 5H24z"/>
</svg>
