<svg xmlns="http://www.w3.org/2000/svg" viewBox="0 0 48 48" width="48" height="48" role="img" aria-label="GŲnŁl KŲprŁsŁ">
  <defs>
    <linearGradient id="gk-brand" x1="6" y1="4" x2="42" y2="44" gradientUnits="userSpaceOnUse">
      <stop offset="0%" stop-color="#E8A0B4"/>
      <stop offset="50%" stop-color="#C4577A"/>
      <stop offset="100%" stop-color="#8B3A62"/>
    </linearGradient>
    <linearGradient id="gk-shine" x1="24" y1="2" x2="24" y2="28" gradientUnits="userSpaceOnUse">
      <stop offset="0%" stop-color="#FFFFFF" stop-opacity="0.28"/>
      <stop offset="100%" stop-color="#FFFFFF" stop-opacity="0"/>
    </linearGradient>
  </defs>
  <rect x="2" y="2" width="44" height="44" rx="13" fill="url(#gk-brand)"/>
  <rect x="2" y="2" width="44" height="44" rx="13" fill="url(#gk-shine)"/>
  <!-- KŲprŁ kemeri -->
  <path d="M10.5 30.5C10.5 30.5 24 12.5 37.5 30.5" fill="none" stroke="#FFF9F5" stroke-width="2.6" stroke-linecap="round"/>
  <!-- KŲprŁ ayaklar1 ve gŁvertesi -->
  <path d="M13 30.5V35.5M35 30.5V35.5M11.5 35.5H36.5" fill="none" stroke="#FFF9F5" stroke-width="2.2" stroke-linecap="round" stroke-linejoin="round"/>
  <!-- Merkez kalp  iki gŲnŁlŁ birle_tiren kŲprŁ -->
  <path fill="#FFF9F5" d="M24 27.2s-3.4-2.4-3.4-5c0-1.75 1.4-3.1 3.1-3.1.85 0 1.55.38 1.95 1 .4-.62 1.1-1 1.95-1 1.7 0 3.1 1.35 3.1 3.1 0 2.6-3.4 5-3.4 5H24z"/>
  <!-- KŲprŁ uÁlar1nda iki kŁÁŁk kalp -->
  <path fill="#FFF9F5" fill-opacity="0.92" d="M13.2 28.8s-1.1-.75-1.1-1.65c0-.55.45-1 1-1 .28 0 .52.14.65.35.13-.21.37-.35.65-.35.55 0 1 .45 1 1 0 .9-1.1 1.65-1.1 1.65h-.1z"/>
  <path fill="#FFF9F5" fill-opacity="0.92" d="M34.8 28.8s-1.1-.75-1.1-1.65c0-.55.45-1 1-1 .28 0 .52.14.65.35.13-.21.37-.35.65-.35.55 0 1 .45 1 1 0 .9-1.1 1.65-1.1 1.65h-.1z"/>
</svg>
