<svg xmlns="http://www.w3.org/2000/svg" viewBox="0 0 280 56" width="280" height="56" role="img" aria-label="GŲnŁl KŲprŁsŁ  GŲnŁlleri Birle_tiren KŲprŁ">
  <defs>
    <linearGradient id="gk-full-brand" x1="0" y1="0" x2="48" y2="48" gradientUnits="userSpaceOnUse">
      <stop offset="0%" stop-color="#E8A0B4"/>
      <stop offset="50%" stop-color="#C4577A"/>
      <stop offset="100%" stop-color="#8B3A62"/>
    </linearGradient>
    <linearGradient id="gk-full-text" x1="60" y1="0" x2="280" y2="0" gradientUnits="userSpaceOnUse">
      <stop offset="0%" stop-color="#8B3A62"/>
      <stop offset="100%" stop-color="#C4577A"/>
    </linearGradient>
  </defs>
  <!-- Mark -->
  <rect x="0" y="4" width="48" height="48" rx="13" fill="url(#gk-full-brand)"/>
  <path d="M10.5 34.5C10.5 34.5 24 16.5 37.5 34.5" fill="none" stroke="#FFF9F5" stroke-width="2.6" stroke-linecap="round"/>
  <path d="M13 34.5V39.5M35 34.5V39.5M11.5 39.5H36.5" fill="none" stroke="#FFF9F5" stroke-width="2.2" stroke-linecap="round" stroke-linejoin="round"/>
  <path fill="#FFF9F5" d="M24 31.2s-3.4-2.4-3.4-5c0-1.75 1.4-3.1 3.1-3.1.85 0 1.55.38 1.95 1 .4-.62 1.1-1 1.95-1 1.7 0 3.1 1.35 3.1 3.1 0 2.6-3.4 5-3.4 5H24z"/>
  <path fill="#FFF9F5" fill-opacity="0.92" d="M13.2 32.8s-1.1-.75-1.1-1.65c0-.55.45-1 1-1 .28 0 .52.14.65.35.13-.21.37-.35.65-.35.55 0 1 .45 1 1 0 .9-1.1 1.65-1.1 1.65h-.1z"/>
  <path fill="#FFF9F5" fill-opacity="0.92" d="M34.8 32.8s-1.1-.75-1.1-1.65c0-.55.45-1 1-1 .28 0 .52.14.65.35.13-.21.37-.35.65-.35.55 0 1 .45 1 1 0 .9-1.1 1.65-1.1 1.65h-.1z"/>
  <!-- Wordmark -->
  <text x="60" y="30" font-family="'Playfair Display', Georgia, serif" font-size="22" font-weight="700" fill="url(#gk-full-text)">GŲnŁl KŲprŁsŁ</text>
  <text x="60" y="46" font-family="'Outfit', 'Segoe UI', sans-serif" font-size="10.5" font-weight="500" fill="#9A7A88" font-style="italic" letter-spacing="0.04em">GŲnŁlleri Birle_tiren KŲprŁ</text>
</svg>
